<svg class="droip-s4142-dp6yejrs" data-droip="dpm8uazq" width="24" height="24" viewBox="0 0 24 24" fill="none" xmlns="http://www.w3.org/2000/svg">
    <path d="M3 3C3 1.89543 3.89543 1 5 1H19C20.1046 1 21 1.89543 21 3V21C21 22.1046 20.1046 23 19 23H5C3.89543 23 3 22.1046 3 21V3Z" fill="#BBB3FA" data-darkreader-inline-fill="" style="--darkreader-inline-fill: var(--darkreader-text-bbb3fa, #9d92ec);"></path>
    <path d="M6 15C6 14.4477 6.44772 14 7 14H16C16.5523 14 17 14.4477 17 15C17 15.5523 16.5523 16 16 16H7C6.44772 16 6 15.5523 6 15Z" fill="#5641F3" data-darkreader-inline-fill="" style="--darkreader-inline-fill: var(--darkreader-text-5641f3, #5946e8);"></path>
    <path d="M6 19C6 18.4477 6.44772 18 7 18H10C10.5523 18 11 18.4477 11 19C11 19.5523 10.5523 20 10 20H7C6.44772 20 6 19.5523 6 19Z" fill="#5641F3" data-darkreader-inline-fill="" style="--darkreader-inline-fill: var(--darkreader-text-5641f3, #5946e8);"></path>
    <path d="M3 3C3 1.89543 3.89543 1 5 1H10V11H3V3Z" fill="#7261EF" data-darkreader-inline-fill="" style="--darkreader-inline-fill: var(--darkreader-text-7261ef, #6d5de3);"></path>
    <path d="M21 3C21 1.89543 20.1046 1 19 1H10V11H21V3Z" fill="#8E81EC" data-darkreader-inline-fill="" style="--darkreader-inline-fill: var(--darkreader-text-8e81ec, #8174df);"></path>
</svg>